<svg width="168" height="46" viewBox="0 0 168 46" fill="none" xmlns="http://www.w3.org/2000/svg">
<g filter="url(#filter0_d_8621_6641)">
<path d="M88.7955 35.33C87.9617 34.2263 87.2708 33.0266 87.0802 32.6667C86.6276 31.9229 85.7223 30.9152 84.7694 30.6273C87.1278 30.2914 88.0808 28.4439 88.0808 26.7404C88.0808 23.7652 85.5317 22.8295 82.8873 22.8295H75.5736V23.0694H75.8595C76.5503 23.0694 77.0983 23.5973 77.1221 24.3171V35.7139C77.0983 36.4337 76.5265 36.9855 75.8595 36.9855H75.5736V37.2255H82.125V36.9855H81.8629C81.2197 36.9855 80.5765 36.5057 80.5765 35.6899V23.8132C80.8385 23.8132 81.315 23.7892 81.9344 23.8132C82.7444 23.8612 84.3644 24.1971 84.4596 26.5724C84.4835 27.0283 84.4358 27.3882 84.3882 27.5801C83.9832 29.5956 82.8873 29.9555 81.9106 29.9795C81.5532 29.9795 81.315 29.9795 81.2912 29.9795V30.1714C81.7438 30.1954 82.3156 30.6273 82.7206 31.635C82.935 32.4508 83.7926 34.0583 84.3167 34.9221C85.4602 36.6976 86.6752 37.2015 89.2481 37.2015H91.2493V36.9615C90.2725 36.9615 89.7246 36.6256 88.7955 35.33Z" fill="white"/>
<path d="M103.666 26.7884C103.595 24.557 101.951 22.8055 98.139 22.8055H91.0873V23.0454H91.3732C92.0879 23.0454 92.6597 23.5973 92.6597 24.3171V35.7139C92.6358 36.4337 92.0879 36.9855 91.3732 36.9855H91.0873V37.2015H97.6864V36.9615H97.4005C96.6381 36.9615 96.114 36.4337 96.0902 35.7139V23.7652H97.1861C98.949 23.7652 99.9972 24.8689 100.045 26.6204C100.045 26.9803 99.9972 27.4842 99.9019 27.8921C99.1872 30.5793 96.8526 30.3154 96.8526 30.3154V30.5313C99.9734 32.6427 103.809 30.6033 103.666 26.7884Z" fill="white"/>
<path d="M119.745 24.341C119.745 23.5973 120.341 23.0454 121.055 23.0454H121.317V22.8055H114.742V23.0454H115.004C115.719 23.0454 116.291 23.5973 116.315 24.341V29.5716H110.049V24.3171C110.073 23.5973 110.645 23.0454 111.359 23.0454H111.621V22.8055H105.046V23.0454H105.308C105.999 23.0454 106.595 23.5973 106.595 24.341V35.6899C106.595 36.4337 105.999 36.9855 105.308 36.9855L105.046 36.9615V37.2015H111.621V36.9615L111.359 36.9855C110.645 36.9855 110.073 36.4337 110.049 35.7139V30.5073H116.315V35.7139C116.291 36.4337 115.719 36.9855 115.004 36.9855H114.742V37.2255H121.294V36.9855H121.032C120.317 36.9855 119.745 36.4337 119.745 35.7139V24.341Z" fill="white"/>
<path d="M134.685 32.8107C134.066 34.9221 132.684 36.2177 130.683 36.2417H127.8V30.5553H130.54C131.66 30.6033 132.327 31.3951 132.327 32.4508V32.6187H132.589V27.5562H132.327V27.7001C132.327 28.7798 131.636 29.5716 130.516 29.5956H127.8V23.7892H131.231C132.612 23.8132 133.399 24.677 133.399 26.0446V26.2845H133.661V22.4456C133.28 22.5895 132.065 22.8055 131.183 22.8055H122.797V23.0454H123.083C123.774 23.0454 124.37 23.5973 124.37 24.3171V35.7139C124.346 36.4337 123.774 36.9615 123.083 36.9615H122.797V37.2015H133.994L134.923 32.8107H134.685Z" fill="white"/>
<path d="M151.729 22.8055H147.322V23.0214H147.656C148.251 23.0214 148.728 23.4533 148.752 24.0531V32.1389C148.728 34.9221 147.251 36.5776 144.773 36.5776C142.343 36.5776 140.914 34.8261 140.914 31.8749V24.0771C140.938 23.4533 141.39 23.0214 141.986 23.0214H142.343V22.8055H136.078V23.0214H136.387C136.983 23.0214 137.483 23.4533 137.483 24.0771V32.0189C137.483 35.4499 139.723 37.5134 144.32 37.5134C148.132 37.5134 150.324 35.426 150.324 31.9709V24.0531C150.324 23.4533 150.824 23.0214 151.396 23.0214H151.729V22.8055Z" fill="white"/>
<path d="M157.735 27.2442C156.806 26.7404 156.115 26.2365 156.186 25.3248C156.258 24.2451 157.258 23.4773 158.783 23.4773C160.689 23.4773 161.761 24.413 161.761 25.8766H161.952L162.237 23.1414L162.285 22.7335H160.999C159.998 22.6135 158.688 22.5176 157.902 22.5176C155.472 22.5176 153.804 23.8612 153.613 26.1405C153.423 27.7961 154.114 29.2357 155.71 30.0754L159.093 32.2348C160.379 32.8827 160.879 33.5545 160.879 34.3942C160.879 35.5699 159.974 36.5536 158.116 36.5776C155.591 36.5776 154.042 34.7541 154.185 32.5947H153.995C153.423 33.5065 153.113 35.33 153.47 36.2417C154.161 36.9855 155.805 37.5134 157.854 37.5134C161.165 37.5134 163.309 35.8818 163.452 33.1706C163.571 31.4671 162.761 30.2434 161.499 29.5716L157.735 27.2442Z" fill="white"/>
<path d="M66.8278 20.3709C61.3051 18.8805 56.8981 21.1688 55.5169 26.3602C54.1296 31.5747 56.8163 35.7525 62.3391 37.2429C67.8618 38.7333 72.2396 36.462 73.6269 31.2474C75.0081 26.056 72.3506 21.8613 66.8278 20.3709ZM62.598 36.2695C59.3534 35.3939 58.0638 31.9906 59.2846 27.4018C60.5117 22.7898 63.3181 20.4919 66.5627 21.3675C69.8073 22.2431 71.0739 25.6402 69.8469 30.2522C68.626 34.841 65.8426 37.1451 62.598 36.2695Z" fill="white"/>
<path d="M88.7955 35.33C87.9617 34.2263 87.2708 33.0266 87.0802 32.6667C86.6276 31.9229 85.7223 30.9152 84.7694 30.6273C87.1278 30.2914 88.0808 28.4439 88.0808 26.7404C88.0808 23.7652 85.5317 22.8295 82.8873 22.8295H75.5736V23.0694H75.8595C76.5503 23.0694 77.0983 23.5973 77.1221 24.3171V35.7139C77.0983 36.4337 76.5265 36.9855 75.8595 36.9855H75.5736V37.2255H82.125V36.9855H81.8629C81.2197 36.9855 80.5765 36.5057 80.5765 35.6899V23.8132C80.8385 23.8132 81.315 23.7892 81.9344 23.8132C82.7444 23.8612 84.3644 24.1971 84.4596 26.5724C84.4835 27.0283 84.4358 27.3882 84.3882 27.5801C83.9832 29.5956 82.8873 29.9555 81.9106 29.9795C81.5532 29.9795 81.315 29.9795 81.2912 29.9795V30.1714C81.7438 30.1954 82.3156 30.6273 82.7206 31.635C82.935 32.4508 83.7926 34.0583 84.3167 34.9221C85.4602 36.6976 86.6752 37.2015 89.2481 37.2015H91.2493V36.9615C90.2725 36.9615 89.7246 36.6256 88.7955 35.33Z" fill="white"/>
<path d="M103.666 26.7884C103.595 24.557 101.951 22.8055 98.139 22.8055H91.0873V23.0454H91.3732C92.0879 23.0454 92.6597 23.5973 92.6597 24.3171V35.7139C92.6358 36.4337 92.0879 36.9855 91.3732 36.9855H91.0873V37.2015H97.6864V36.9615H97.4005C96.6381 36.9615 96.114 36.4337 96.0902 35.7139V23.7652H97.1861C98.949 23.7652 99.9972 24.8689 100.045 26.6204C100.045 26.9803 99.9972 27.4842 99.9019 27.8921C99.1872 30.5793 96.8526 30.3154 96.8526 30.3154V30.5313C99.9734 32.6427 103.809 30.6033 103.666 26.7884Z" fill="white"/>
<path d="M119.745 24.341C119.745 23.5973 120.341 23.0454 121.055 23.0454H121.317V22.8055H114.742V23.0454H115.004C115.719 23.0454 116.291 23.5973 116.315 24.341V29.5716H110.049V24.3171C110.073 23.5973 110.645 23.0454 111.359 23.0454H111.621V22.8055H105.046V23.0454H105.308C105.999 23.0454 106.595 23.5973 106.595 24.341V35.6899C106.595 36.4337 105.999 36.9855 105.308 36.9855L105.046 36.9615V37.2015H111.621V36.9615L111.359 36.9855C110.645 36.9855 110.073 36.4337 110.049 35.7139V30.5073H116.315V35.7139C116.291 36.4337 115.719 36.9855 115.004 36.9855H114.742V37.2255H121.294V36.9855H121.032C120.317 36.9855 119.745 36.4337 119.745 35.7139V24.341Z" fill="white"/>
<path d="M134.685 32.8107C134.066 34.9221 132.684 36.2177 130.683 36.2417H127.8V30.5553H130.54C131.66 30.6033 132.327 31.3951 132.327 32.4508V32.6187H132.589V27.5562H132.327V27.7001C132.327 28.7798 131.636 29.5716 130.516 29.5956H127.8V23.7892H131.231C132.612 23.8132 133.399 24.677 133.399 26.0446V26.2845H133.661V22.4456C133.28 22.5895 132.065 22.8055 131.183 22.8055H122.797V23.0454H123.083C123.774 23.0454 124.37 23.5973 124.37 24.3171V35.7139C124.346 36.4337 123.774 36.9615 123.083 36.9615H122.797V37.2015H133.994L134.923 32.8107H134.685Z" fill="white"/>
<path d="M151.729 22.8055H147.322V23.0214H147.656C148.251 23.0214 148.728 23.4533 148.752 24.0531V32.1389C148.728 34.9221 147.251 36.5776 144.773 36.5776C142.343 36.5776 140.914 34.8261 140.914 31.8749V24.0771C140.938 23.4533 141.39 23.0214 141.986 23.0214H142.343V22.8055H136.078V23.0214H136.387C136.983 23.0214 137.483 23.4533 137.483 24.0771V32.0189C137.483 35.4499 139.723 37.5134 144.32 37.5134C148.132 37.5134 150.324 35.426 150.324 31.9709V24.0531C150.324 23.4533 150.824 23.0214 151.396 23.0214H151.729V22.8055Z" fill="white"/>
<path d="M157.735 27.2442C156.806 26.7404 156.115 26.2365 156.186 25.3248C156.258 24.2451 157.258 23.4773 158.783 23.4773C160.689 23.4773 161.761 24.413 161.761 25.8766H161.952L162.237 23.1414L162.285 22.7335H160.999C159.998 22.6135 158.688 22.5176 157.902 22.5176C155.472 22.5176 153.804 23.8612 153.613 26.1405C153.423 27.7961 154.114 29.2357 155.71 30.0754L159.093 32.2348C160.379 32.8827 160.879 33.5545 160.879 34.3942C160.879 35.5699 159.974 36.5536 158.116 36.5776C155.591 36.5776 154.042 34.7541 154.185 32.5947H153.995C153.423 33.5065 153.113 35.33 153.47 36.2417C154.161 36.9855 155.805 37.5134 157.854 37.5134C161.165 37.5134 163.309 35.8818 163.452 33.1706C163.571 31.4671 162.761 30.2434 161.499 29.5716L157.735 27.2442Z" fill="white"/>
<path d="M66.8278 20.3709C61.3051 18.8805 56.8981 21.1688 55.5169 26.3602C54.1296 31.5747 56.8163 35.7525 62.3391 37.2429C67.8618 38.7333 72.2396 36.462 73.6269 31.2474C75.0081 26.056 72.3506 21.8613 66.8278 20.3709ZM62.598 36.2695C59.3534 35.3939 58.0638 31.9906 59.2846 27.4018C60.5117 22.7898 63.3181 20.4919 66.5627 21.3675C69.8073 22.2431 71.0739 25.6402 69.8469 30.2522C68.626 34.841 65.8426 37.1451 62.598 36.2695Z" fill="white"/>
</g>
<path d="M23.1796 40.7692C33.0806 39.6276 40.7692 31.1898 40.7692 20.9503C40.7692 9.93207 31.8666 1 20.8846 1C9.90265 1 1 9.93207 1 20.9503C1 28.1478 4.79887 34.4551 10.4947 37.9639" stroke="url(#paint0_radial_8621_6641)" stroke-linecap="round"/>
<path d="M32.0952 21.6321C32.0383 21.107 32.105 20.3553 31.9706 19.9389C31.9706 19.9346 31.9684 19.926 31.9657 19.9114C31.6751 21.0649 32.0378 22.3404 31.4378 23.4087C30.9331 24.0826 30.9483 24.8888 30.9994 25.6816C31.031 27.0087 31.133 28.3384 31.1272 29.6646C30.9616 30.6929 29.9495 29.6607 29.3865 29.8915C28.8408 30.1923 28.3846 29.8163 28.2595 29.2804C27.9458 29.9104 28.1977 30.4368 28.7798 30.7093C29.0117 30.8571 29.0647 31.4398 28.6637 31.3677C27.6369 31.1996 26.8647 31.8507 25.9162 32.0209C26.55 32.3591 28.3601 31.3333 28.2542 32.5593C28.2003 33.1988 27.2911 32.8413 27.1099 33.4399C27.8069 34.0205 27.4477 35.1271 26.6203 35.3978C23.953 35.8628 21.3746 34.2147 19.0945 33.0699C17.368 32.0028 16.4596 30.1411 16.1098 28.2498C15.9527 27.848 17.5892 28.6228 17.8371 28.2361C14.7661 27.9043 13.6881 19.9982 17.8096 22.927C18.1963 23.3632 18.3926 23.9197 18.519 24.4741C18.519 24.9631 19.5778 23.771 20.7626 24.41C22.3284 24.9309 23.2137 23.4276 24.3602 22.7241C25.3812 22.0236 26.5246 21.4671 27.4375 20.6385C27.8434 20.287 26.3599 20.5706 26.1441 20.0244C25.6047 19.4387 24.7688 19.0923 24.0522 19.5947C23.4856 20.0339 22.5706 20.6639 22.4793 21.3304C23.7758 19.8285 24.5712 19.5685 26.2295 20.7752C26.4476 20.841 26.4 20.9497 26.2865 21.0515C25.9834 21.339 25.5708 21.1805 25.2183 21.0945C24.2894 20.6987 23.1233 20.9712 23.0098 22.043C23.2675 21.5612 24.6798 20.9634 24.8075 21.6265C23.5791 22.5037 22.6093 24.3318 20.8432 23.9064C20.2352 23.7345 19.4252 23.5243 19.086 23.0065C19.9762 23.3967 21.2789 23.6941 21.9915 22.8801C18.7389 24.401 18.3383 19.0833 15.9193 20.6626C16.89 20.556 18.5048 22.2682 16.9652 21.8479C15.7755 21.4181 15.0866 23.0443 13.9952 22.4306C12.9693 21.6351 14.6152 22.3803 14.8266 21.7039C14.9441 21.5569 14.8382 21.446 14.6784 21.526C13.5613 21.8199 13.4091 21.4976 12.6511 20.9982C12.6418 21.1465 12.9346 21.6493 12.6257 21.5939C12.3671 21.6085 11.5709 20.9493 11.8985 21.4615C12.4962 22.1272 13.9641 22.7482 13.5453 23.7822C13.0726 23.1444 13.0232 23.101 12.6685 23.0297C12.8785 23.428 13.0753 23.8178 13.0526 24.2712C12.5941 23.8372 12.51 23.0228 11.732 22.856C11.4236 22.7469 11.0039 22.4057 11.0742 22.0825C11.5575 22.3949 11.878 22.5664 12.3044 22.4358C11.7387 21.9708 10.9367 21.706 10.8401 20.7726C10.9117 20.4464 10.0964 19.1989 10.4907 19.2487C10.7758 19.4181 10.9932 19.6756 11.1076 19.9793C12.506 21.7769 12.0823 20.2058 11.2513 19.3063C10.9874 18.8379 9.36108 17.6973 9.46835 18.8018C9.81239 19.8392 10.302 20.9394 9.92678 22.0365C9.33749 23.343 9.066 21.3489 8.9752 20.8332C8.84613 20.4787 8.93069 19.9346 8.70326 19.6785C8.53813 19.8787 8.61424 20.2586 8.59955 20.5195C8.93737 22.3885 8.46603 25.1922 9.95259 26.8329C10.1582 27.9967 10.7341 29.0281 11.9078 29.5833C12.514 30.6577 12.1117 32.2409 12.1032 33.4756C11.9043 35.9776 10.3216 37.9548 8.92224 39.9579C5.41947 46.8283 10.3665 39.1908 17.1419 41.5841C20.2059 42.5764 22.9636 44.374 26.1886 44.9052C28.9752 45.6624 21.9158 41.6601 21.6234 40.8724C21.2051 39.4972 21.9741 37.8848 22.081 36.4516C22.1669 36.0064 22.0681 35.9875 22.6596 36.0132C23.969 36.082 25.2975 36.1559 26.5941 35.9174C28.7238 35.562 27.2029 33.6505 28.2551 33.1747C28.8297 33.0591 28.596 32.4377 28.6339 32.0574C28.6993 31.8812 28.9454 31.9229 29.103 31.8395C29.7261 31.5662 28.9018 30.4991 29.8387 30.4948C30.6265 30.6087 31.6697 30.6354 31.5562 29.5704C31.5496 28.0809 31.4027 26.5962 31.3916 25.1066C31.3689 23.8844 32.34 22.8956 32.0952 21.6321ZM11.8508 27.949C10.8686 27.1952 9.68643 26.4479 9.89251 25.0641C10.2931 25.6963 10.4466 26.3297 11.1067 26.7599C11.335 26.8471 12.4036 28.1965 11.8508 27.949ZM12.2042 26.5429C11.1872 26.3044 10.7706 25.4573 10.5445 24.5454C10.5218 24.0013 9.03885 22.431 10.4555 23.3481C10.5445 23.4182 10.585 23.5428 10.7168 23.5583C10.7764 23.3924 10.4052 22.8707 10.7671 23.055C12.1094 23.7426 11.2567 25.3176 12.2127 26.2395C12.3614 26.3392 12.5323 26.6456 12.2042 26.5429ZM21.3795 35.932C21.0319 37.3828 20.8361 38.859 20.5744 40.3249C19.9775 40.832 18.8386 39.9313 18.3045 39.5312C17.4036 38.8973 14.5885 35.1752 15.9246 38.4998C15.9611 38.8436 16.6305 39.795 16.0341 39.8427C13.8176 38.6931 13.6 35.4593 14.5502 33.4279C15.0327 32.5589 16.043 32.7248 16.7213 33.2775C18.0526 34.479 20.018 35.0003 21.3795 35.932ZM23.0058 22.0464C23.0103 22.0464 23.0139 22.0464 23.0103 22.04C23.0084 22.0421 23.0066 22.0444 23.0049 22.0468L23.0058 22.0464ZM12.0253 20.8345H12.0307C12.0307 20.8345 12.0267 20.8315 12.0253 20.8345Z" fill="white"/>
<path d="M33.1038 16.1692C32.6053 15.0462 31.9114 13.6302 30.4511 13.6023C30.2829 13.6199 30.2134 13.5082 30.2179 13.3595C30.2833 11.9843 24.532 15.4747 23.6521 15.6706C22.9133 15.9427 24.9566 14.2924 25.1115 14.0621C26.7316 12.7148 28.1144 10.5631 30.2593 10.0577C30.4791 10.1699 30.5757 10.0147 30.5668 9.80673C30.9144 8.55143 29.532 7.97987 28.4612 7.87501C27.3894 7.87157 26.9839 9.15781 26.3835 9.83423C26.2175 10.1149 26.0399 10.386 25.7368 10.0667C24.6687 9.38557 23.6165 8.65844 22.2906 8.54584C23.223 8.98978 24.5707 9.38557 24.9246 10.3289C24.6295 10.1999 24.4087 9.87935 24.0651 9.89912C24.2178 10.053 24.5627 10.9628 24.2147 10.6452C23.7011 9.83337 22.8122 9.35076 21.931 8.99235C20.3763 8.39071 19.5596 10.3607 16.4716 10.0431C18.3957 10.9426 20.8023 8.80627 22.6654 10.2648C22.6111 9.87334 22.0921 9.81145 21.9012 9.49688C23.0432 9.64385 23.4002 10.7358 24.078 11.4737C24.6286 12.1562 24.099 11.695 23.7184 11.579C23.8996 11.9555 24.4247 12.3526 24.228 12.7475C24.0188 13.0023 23.0512 11.1656 22.429 11.0113C21.1913 10.1561 19.6566 10.5068 18.3864 11.1011C17.0307 11.7311 15.7947 10.1346 14.4595 10.7904C13.3957 11.0668 12.9907 12.3981 12.0053 12.6156C9.58896 12.5266 13.0192 11.6271 13.345 10.8755C13.701 10.4376 14.228 10.2567 14.6673 9.93565C14.2667 9.85701 13.9614 10.1505 13.5947 10.1729C13.9133 9.5188 14.8195 9.27556 15.525 9.20422C16.3261 9.13632 17.1206 9.29962 17.9204 9.32369C22.5332 8.70915 18.037 7.6438 16.2509 8.25705C16.8673 8.33742 17.4348 8.41348 17.9128 8.75041C15.9206 8.46849 13.6027 8.73021 12.6778 10.7599C12.4526 11.3306 11.6928 11.206 11.38 11.7054C10.8169 12.4132 10.3816 13.2039 9.88583 13.9529C9.54935 14.8 8.05122 17.0403 9.23958 18.0656C9.54312 17.4975 10.0158 17.0523 10.764 17.3432C12.0547 18.1267 10.9625 16.2646 10.1987 16.6341C8.46291 17.4455 10.4586 15.9586 10.7733 15.6027C10.3029 15.6728 9.98464 16.0755 9.5627 16.1945C9.82129 14.8563 10.6135 14.1966 11.7187 13.3852C12.4918 12.6169 12.8674 14.8339 13.6263 13.6633C14.0589 12.7492 15.2054 12.5266 15.9153 12.059C15.2655 12.0238 14.6459 12.3135 14.1167 12.6521C14.0616 12.6869 14.0081 12.7591 13.9102 12.6693C14.7559 11.423 15.7061 11.1875 17.1246 11.6972C18.8159 11.9443 19.1199 10.5193 21.0377 11.9078C21.4329 12.1794 23.6472 13.9052 22.7784 14.1777C21.4677 14.5215 20.5628 12.0779 19.1844 12.8313C18.0859 13.9856 17.259 14.6977 15.5472 14.1657C13.8697 14.1064 14.2663 15.2284 12.0137 14.4931C11.6132 14.5894 11.1205 14.7243 10.8841 15.0518C11.7641 14.9633 12.6765 14.8614 13.2702 15.6788C13.7531 16.3741 14.8142 16.595 15.3977 15.8413C15.055 15.9513 14.1328 16.0561 14.1653 15.6496C14.4801 15.5891 14.7593 15.4154 14.9464 15.1635C15.3536 14.6234 16.0591 15.1098 16.5807 15.2138C18.053 15.7484 18.3779 13.5718 19.662 13.564C20.1694 13.6122 20.7048 13.8219 21.0417 14.2026C20.4159 14.1416 19.7359 13.8588 19.1688 14.3019C18.7958 14.6844 20.4097 14.225 20.4778 14.7269C19.4336 14.8043 18.0989 14.8481 17.3422 15.5761C18.3944 15.1335 19.1417 16.2267 20.1698 15.993C17.4103 15.1949 20.1978 14.613 21.189 15.4635C23.2809 14.8481 24.8289 12.7041 26.1169 11.0272C27.0574 10.062 27.8154 7.77531 29.4283 8.98677C29.8734 9.19562 26.9986 11.4449 26.6987 11.9654C25.4257 13.2301 24.143 14.5082 22.628 15.5065C22.0543 15.9676 21.2162 16.1593 20.6563 16.4949C22.3062 16.8348 23.8608 15.8885 25.3705 15.3797C27.3903 14.843 30.4057 12.8652 31.9826 15.0492C32.6609 15.8713 32.9818 17.112 32.6854 18.1344C32.6106 18.2457 32.7117 18.3364 32.8274 18.2556C33.2493 18.1396 33.2756 16.4932 33.1038 16.1692ZM17.9128 8.75041C17.9199 8.75041 17.891 8.76631 17.8914 8.76717L17.9128 8.75041ZM23.4763 13.564C22.4682 12.7045 21.7334 11.2864 20.2139 10.9052C21.0439 10.6538 21.7427 10.8128 22.3502 11.3444C22.7272 11.8132 24.2659 13.0634 23.4763 13.5653V13.564ZM24.3451 11.8798C24.3202 11.8695 24.3162 11.8532 24.3331 11.8321C24.3504 11.8467 24.3664 11.8661 24.3451 11.8811V11.8798ZM22.6725 10.27L22.6654 10.2648C22.6654 10.2696 22.6627 10.2743 22.6609 10.279L22.6725 10.27ZM19.0638 14.4768C19.0638 14.4686 19.0638 14.4665 19.0549 14.4678L19.0638 14.4768ZM10.776 15.5916C10.7762 15.5962 10.7762 15.6007 10.776 15.6053L10.788 15.6023L10.776 15.5916Z" fill="white"/>
<path d="M22.5318 20.3747C22.012 21.431 20.8192 21.6055 19.7621 21.2402C19.8876 21.8264 20.6825 22.1663 21.2647 22.0408C18.4376 23.8887 18.8279 17.1374 15.3959 20.0356C14.8204 20.6691 14.0491 21.4456 13.2043 20.8212C12.7722 20.7047 11.6911 19.097 12.6987 19.6484C14.8925 20.709 15.4511 16.7962 17.4201 17.6814C17.19 17.9088 16.7115 17.9131 16.5219 18.2711C16.3065 18.516 17.2425 18.4 17.4188 18.721C18.8582 20.1254 20.4903 21.9708 22.5318 20.3747Z" fill="white"/>
<path d="M19.317 16.7068C20.5334 18.464 22.9386 17.4288 24.2641 18.7167C22.5479 17.7528 20.4315 19.9002 19.0473 18.1237C18.5524 17.326 18.0681 16.4476 16.9652 16.4812C15.687 16.4133 15.2784 17.8108 14.5173 18.5405C13.3681 19.8787 11.6817 18.9114 11.7707 17.32C13.0503 20.0829 14.5062 17.6827 15.8383 16.5134C17.214 15.4846 18.5132 16.8237 19.3388 17.8486C19.8729 18.4073 20.8392 18.7146 21.5576 18.3501C20.5775 18.0906 19.6139 17.8551 19.317 16.7068Z" fill="white"/>
<path d="M30.1609 23.3928C28.6793 23.2514 27.1642 23.7757 25.7462 24.1397C26.2465 25.4642 27.725 24.303 28.738 24.3215C28.892 24.2433 29.5213 24.4178 29.1875 24.5437C28.6183 24.4801 28.0886 24.6915 27.5679 24.8806C26.6208 25.0525 27.7076 25.8488 28.0326 26.1595C28.7028 26.8751 31.3853 23.6747 30.1609 23.3928ZM28.9953 25.3159C28.9507 26.3542 27.2497 25.4088 27.672 25.0555C28.005 24.9902 29.0042 24.7044 28.9953 25.3159Z" fill="white"/>
<path d="M31.2843 16.1821C29.9985 14.6822 29.804 16.5306 28.4661 16.6341C29.5218 17.5276 30.517 15.2289 31.1948 16.9302C30.407 16.0278 29.7363 17.372 28.8733 17.1125C28.3481 16.8886 27.6912 16.8146 27.3089 16.3681C27.0997 16.097 26.8233 16.1129 26.5335 16.1558C26.3689 16.2878 25.1471 16.4567 25.5432 16.1451C25.8063 16.0724 26.0411 15.926 26.218 15.7244C26.8998 15.2456 27.7757 16.1971 28.5497 16.1541C29.4791 16.2293 30.1427 13.7041 31.2843 16.1821Z" fill="white"/>
<path d="M18.9329 19.0055C21.1797 20.8882 21.5015 18.6785 23.5617 18.871C23.5315 18.9763 23.4647 18.9793 23.4104 18.9883C22.7766 19.0824 22.4117 19.6033 21.9737 19.9956C20.9322 21.1542 19.2814 20.2917 18.9329 19.0055Z" fill="white"/>
<path d="M29.1573 18.6849C29.2334 18.8602 29.4154 18.8633 29.5178 18.9664C27.8118 18.8087 28.5871 17.3716 25.7791 17.8164C28.1269 16.5658 28.576 18.314 29.5939 18.1684C29.9459 18.0343 30.3118 17.8117 30.5575 18.2693C29.998 18.0601 29.6522 18.5431 29.1573 18.6849Z" fill="white"/>
<path d="M15.784 23.9214C15.9309 22.382 17.9453 23.0688 17.4263 24.3851C17.3818 24.453 17.3818 24.5871 17.4953 24.5664C18.0089 24.1904 17.8367 24.9163 17.6916 25.1483C17.3774 25.6211 16.4899 25.3374 16.6621 24.7345C16.6862 24.3701 17.1495 23.9717 16.8785 23.6343C16.4721 23.2385 16.0804 23.6837 15.784 23.9214Z" fill="white"/>
<path d="M16.6929 12.5086C17.3493 12.9916 18.0067 12.359 18.6783 12.3891C17.9346 12.9615 17.2372 14.1081 16.1953 13.3186C15.6082 12.8988 14.9842 13.4403 14.4189 13.5675C14.6183 13.1068 14.9059 12.9091 15.3687 12.9082C15.8561 12.8266 17.2639 13.5851 17.3315 12.9082C17.0992 12.7999 16.809 12.7514 16.6929 12.5086Z" fill="white"/>
<path d="M28.9899 19.4073C27.9907 19.8225 27.4388 18.7154 26.453 18.8555C25.6883 18.9625 27.2648 19.9479 27.5296 20.0369C26.8175 20.1082 26.4134 19.6175 26.007 19.1284C25.9086 18.9789 25.3394 18.8727 25.7092 18.7489C27.4842 18.0205 27.5612 19.0811 28.9899 19.4073Z" fill="white"/>
<path d="M27.0231 13.1944C27.7303 12.3857 28.9623 11.8283 29.9321 11.2606C30.3496 10.9877 30.7382 11.8394 30.3127 11.9202C29.1395 12.0625 28.0277 12.6366 27.0169 13.1949L27.0231 13.1944Z" fill="white"/>
<path d="M12.7499 16.9698C12.9088 17.0458 13.0664 17.1288 13.2974 17.0665C13.0241 16.8245 12.6903 16.6797 12.6115 16.3501C13.2408 16.9221 14.0357 16.8752 14.816 16.7798C14.5832 17.6032 12.9894 17.8955 12.7499 16.9698Z" fill="white"/>
<path d="M23.4576 16.7171C24.4087 16.9049 25.1671 16.9672 26.0809 16.8482C25.4515 17.837 24.2213 17.5925 23.4576 16.7171Z" fill="white"/>
<path d="M16.392 25.7831C16.8104 26.1367 17.2648 26.0435 17.7477 25.9077C18.094 27.3925 15.9643 26.2627 15.9821 25.395C15.9821 25.395 16.234 25.67 16.392 25.7831Z" fill="white"/>
<path d="M31.384 18.2775C30.6621 17.3927 29.9544 17.88 29.1586 17.5994C29.9023 17.3978 31.2732 17.1271 31.384 18.2775Z" fill="white"/>
<path d="M10.7853 15.601L10.8503 15.5581C10.8632 15.6427 10.7622 15.5675 10.7853 15.601Z" fill="white"/>
<path d="M22.6605 10.2816C22.6871 10.2792 22.7138 10.2864 22.7352 10.3019C22.7567 10.3174 22.7715 10.34 22.7766 10.3654C22.7401 10.3426 22.697 10.2618 22.6605 10.2816Z" fill="white"/>
<path d="M31.3186 17.0454C31.279 17.0166 31.2371 16.9204 31.1948 16.9302C31.2674 16.9397 31.2736 17.0093 31.3186 17.0454Z" fill="white"/>
<path d="M12.7588 16.9782L12.7272 16.9908C12.7352 16.9863 12.7521 16.9603 12.7588 16.9782Z" fill="white"/>
<path d="M22.5243 20.3833L22.5194 20.3506C22.522 20.3583 22.5381 20.3773 22.5243 20.3833Z" fill="white"/>
<path d="M12.0253 20.8345L12.0471 20.8079C12.0405 20.8152 12.0378 20.8358 12.0253 20.8345Z" fill="white"/>
<path d="M19.3371 16.7089L19.3108 16.7296C19.3758 16.7519 19.2926 16.699 19.3371 16.7089Z" fill="white"/>
<path d="M12.632 16.3531L12.6035 16.3754C12.6716 16.4017 12.5901 16.3411 12.632 16.3531Z" fill="white"/>
<path d="M31.2687 16.1726C31.3279 16.1614 31.2807 16.2207 31.2976 16.1653C31.303 16.1472 31.2776 16.1464 31.2834 16.1812L31.2687 16.1726Z" fill="white"/>
<path d="M21.1899 15.4635L21.1997 15.4906C21.1948 15.4816 21.1708 15.4712 21.1899 15.4635Z" fill="white"/>
<path d="M19.0549 14.4678C19.0282 14.5198 19.1065 14.4747 19.0513 14.4979C19.0068 14.5129 19.0215 14.4549 19.0638 14.4768L19.0549 14.4678Z" fill="white"/>
<path d="M16.7111 12.5163C16.6519 12.5283 16.7009 12.4652 16.6893 12.5219C16.6866 12.5356 16.7089 12.5352 16.696 12.509L16.7111 12.5163Z" fill="white"/>
<path d="M22.7789 10.3551L22.7851 10.3757C22.8202 10.337 22.7766 10.3697 22.7789 10.3551Z" fill="white"/>
<path d="M31.3043 17.0364L31.3279 17.0321C31.287 16.9913 31.3333 17.06 31.3043 17.0364Z" fill="white"/>
<defs>
<filter id="filter0_d_8621_6641" x="51.1562" y="19.9231" width="116.305" height="25.7693" filterUnits="userSpaceOnUse" color-interpolation-filters="sRGB">
<feFlood flood-opacity="0" result="BackgroundImageFix"/>
<feColorMatrix in="SourceAlpha" type="matrix" values="0 0 0 0 0 0 0 0 0 0 0 0 0 0 0 0 0 0 127 0" result="hardAlpha"/>
<feOffset dy="4"/>
<feGaussianBlur stdDeviation="2"/>
<feComposite in2="hardAlpha" operator="out"/>
<feColorMatrix type="matrix" values="0 0 0 0 0 0 0 0 0 0 0 0 0 0 0 0 0 0 0.25 0"/>
<feBlend mode="normal" in2="BackgroundImageFix" result="effect1_dropShadow_8621_6641"/>
<feBlend mode="normal" in="SourceGraphic" in2="effect1_dropShadow_8621_6641" result="shape"/>
</filter>
<radialGradient id="paint0_radial_8621_6641" cx="0" cy="0" r="1" gradientUnits="userSpaceOnUse" gradientTransform="translate(20.8846 1) rotate(90) scale(50.7509 32.2972)">
<stop stop-color="#F7D587"/>
<stop offset="0.595199" stop-color="#8A5B08"/>
<stop offset="1" stop-opacity="0"/>
</radialGradient>
</defs>
</svg>
